<svg width="205" height="200" viewBox="0 0 205 200" fill="none" xmlns="http://www.w3.org/2000/svg">
<g clip-path="url(#clip0_136_1088)">
<path d="M111.925 3.70402C119.446 -2.96319 131.315 -0.257656 135.196 9.01845C138.063 15.8628 145.599 19.4863 152.734 17.4732C162.412 14.7194 171.914 22.3045 171.399 32.3537C171.012 39.7617 176.23 46.3 183.541 47.5723C193.446 49.2954 198.728 60.2625 193.896 69.0877C190.337 75.5939 192.189 83.7588 198.229 88.0747C206.41 93.9367 206.41 106.096 198.229 111.941C192.189 116.257 190.337 124.406 193.896 130.928C198.728 139.754 193.446 150.705 183.541 152.444C176.23 153.716 171.012 160.254 171.399 167.662C171.93 177.712 162.412 185.297 152.734 182.543C145.583 180.514 138.063 184.137 135.196 190.998C131.315 200.274 119.446 202.979 111.925 196.312C106.369 191.384 98.0111 191.384 92.4551 196.312C84.9344 202.979 73.0655 200.274 69.1843 190.998C66.3177 184.153 58.7809 180.53 51.6467 182.543C41.968 185.297 32.4664 177.712 32.9817 167.662C33.3682 160.254 28.1504 153.716 20.839 152.444C10.9349 150.721 5.65264 139.754 10.4839 130.928C14.043 124.422 12.191 116.257 6.15187 111.941C-2.02914 106.079 -2.02914 93.9206 6.15187 88.0747C12.191 83.7588 14.043 75.61 10.4839 69.0877C5.65264 60.2625 10.9349 49.3116 20.839 47.5723C28.1504 46.3 33.3682 39.7617 32.9817 32.3537C32.4503 22.3045 41.968 14.7194 51.6467 17.4732C58.797 19.5024 66.3177 15.8789 69.1843 9.01845C73.0655 -0.257656 84.9344 -2.96319 92.4551 3.70402C98.0111 8.63195 106.369 8.63195 111.925 3.70402Z" fill="#231F20"/>
</g>
<defs>
<clipPath id="clip0_136_1088">
<rect width="204.38" height="200" fill="white"/>
</clipPath>
</defs>
</svg>
